<svg xmlns="http://www.w3.org/2000/svg" width="181.084" height="181.084" fill="none"><path d="M126.944 180.928c-12.566-.264-27.7.432-42.824-.425-21.203-1.201-39.481-9.155-54.982-23.585-10.799-10.052-19.062-21.812-23.92-35.798-5.78-16.636-6.832-33.74-2.786-50.75 7.558-31.768 27.12-53.976 57.756-64.8 34.776-12.286 73.124-3.931 99.585 27.074 9.834 11.523 16.447 24.548 19.42 39.374 1.212 6.049 1.855 12.196 1.864 18.37.041 28.469.024 56.938.02 85.406 0 4.464-.654 5.122-5.248 5.127-15.44.018-30.882.007-48.885.007zm8.542-71.503h-.032c0-6.78.098-13.561-.018-20.338-.445-26.047-26.252-47.02-51.964-42.83-20.639 3.362-38.27 23.194-37.762 44.912.553 23.59 19.56 43.688 43.157 44.155 14.09.279 28.19.077 42.284.049 3.638-.007 4.324-.756 4.331-4.377.014-7.19.004-14.381.004-21.571z" fill="#93be55"/></svg>