<svg xmlns="http://www.w3.org/2000/svg" xmlns:xlink="http://www.w3.org/1999/xlink" width="251.1" height="251.1"><path d="M171.77 5.11h10.51v.69h-10.51z"/><use xlink:href="#B"/><path d="M245.5.2h.68v10.51h-.68zM102.95 73.79h10.5v.69h-10.5z"/><use xlink:href="#B" x="-68.82" y="68.68"/><use xlink:href="#B" y="68.68"/><path d="M245.5 68.88h.68v10.51h-.68zm-211.38 73.6h10.51v.69H34.12z"/><use xlink:href="#C"/><use xlink:href="#B" x="-68.82" y="137.37"/><path d="M176.68 137.57h.69v10.51h-.69zm-142.56 73.6h10.51v.68H34.12z"/><path d="M39.04 206.26h.69v10.51h-.69zm64.24 4.91h10.51v.68h-10.51z"/><path d="M108.19 206.26h.69v10.51h-.69zm-5.24-167.02h10.5v.69h-10.5z"/><use xlink:href="#B" x="-68.82" y="34.13"/><use xlink:href="#B" y="34.13"/><path d="M245.5 34.33h.68v10.51h-.68zM34.12 107.92h10.51v.69H34.12z"/><use xlink:href="#C" y="-34.56"/><use xlink:href="#B" x="-68.82" y="102.81"/><use xlink:href="#B" y="102.81"/><path d="M245.5 103.01h.68v10.51h-.68zm-211.38 73.6h10.51v.69H34.12z"/><use xlink:href="#C" y="34.13"/><use xlink:href="#B" x="-68.82" y="171.5"/><path d="M176.68 171.7h.69v10.51h-.69zM34.12 245.3h10.51v.68H34.12z"/><path d="M39.04 240.39h.69v10.51h-.69zm64.24 4.91h10.51v.68h-10.51z"/><path d="M108.19 240.39h.69v10.51h-.69zM137.64 5.11h10.51v.69h-10.51z"/><use xlink:href="#B" x="-34.13"/><path d="M211.37.2h.68v10.51h-.68zM68.82 73.79h10.5v.69h-10.5z"/><use xlink:href="#B" x="-102.95" y="68.68"/><use xlink:href="#B" x="-34.13" y="68.68"/><path d="M211.37 68.88h.68v10.51h-.68zM0 142.48h10.51v.69H0z"/><use xlink:href="#C" x="-34.13"/><use xlink:href="#B" x="-102.95" y="137.37"/><use xlink:href="#B" x="-34.13" y="137.37"/><path d="M211.37 137.57h.68v10.51h-.68zM0 211.17h10.51v.68H0z"/><path d="M4.91 206.26h.69v10.51h-.69zm64.24 4.91h10.51v.68H69.15z"/><path d="M74.06 206.26h.69v10.51h-.69zm63.58 4.91h10.51v.68h-10.51z"/><path d="M142.55 206.26h.69v10.51h-.69zm-4.91-167.02h10.51v.69h-10.51z"/><use xlink:href="#B" x="-34.13" y="34.13"/><path d="M211.37 34.33h.68v10.51h-.68zM68.82 107.92h10.5v.69h-10.5z"/><use xlink:href="#B" x="-102.95" y="102.81"/><use xlink:href="#B" x="-34.13" y="102.81"/><path d="M211.37 103.01h.68v10.51h-.68zM0 176.61h10.51v.69H0z"/><use xlink:href="#C" x="-34.13" y="34.13"/><use xlink:href="#B" x="-102.95" y="171.5"/><path d="M142.55 171.7h.69v10.51h-.69zM0 245.3h10.51v.68H0z"/><path d="M4.91 240.39h.69v10.51h-.69zm64.24 4.91h10.51v.68H69.15z"/><path d="M74.06 240.39h.69v10.51h-.69z"/><path d="M124.02 81.3c16.64-19.45 66.15-11.51 80.74-5.62V27.14c-22.62-4-55.12-6.06-79-1.41-32 6.23-60.55 25.78-72.68 60.3a124.51 124.51 0 00-6.32 41.69c-.31 16.69 2.84 31.75 6.32 41.43 12.81 36.24 35.09 54.22 72.68 60.31 24 4.14 56.42 2.56 79-1.41v-48.6c-15.36 6.64-60.5 10-78.48-5.87-12.71-11.23-16.24-35.44-15.86-46-.38-10.54-.47-29.84 13.6-46.29" fill="#96c93d"/><defs><path id="B" d="M176.68.2h.69v10.51h-.69zm63.91 4.91h10.51v.69h-10.51z"/><path id="C" d="M39.04 137.57h.69v10.51h-.69zm63.91 4.91h10.5v.69h-10.5z"/></defs></svg>