<svg xmlns="http://www.w3.org/2000/svg" viewBox="0 0 330 330"><path fill="#ff8637" fill-rule="nonzero" d="M192.38 183.13v-.72l-4.36-58.02c-.12-1.58-.78-2.94-1.99-4.08s-2.6-1.73-4.17-1.73h-33.73c-1.57 0-2.96.58-4.17 1.73s-1.87 2.5-1.99 4.08l-4.35 58.02v.72c-.12 1.45.36 2.66 1.45 3.63s2.36 1.45 3.8 1.45h44.25c1.45 0 2.72-.49 3.8-1.45s1.58-2.18 1.46-3.63zM330 267.81c0 8.82-2.78 13.23-8.34 13.23H194c1.57 0 2.9-.57 3.99-1.72s1.57-2.5 1.45-4.08l-3.63-46.42c-.12-1.57-.78-2.93-2-4.08s-2.59-1.72-4.16-1.72h-49.32c-1.57 0-2.96.58-4.17 1.72s-1.88 2.51-2 4.08l-3.62 46.42c-.12 1.58.36 2.94 1.45 4.08s2.41 1.73 3.99 1.73H8.34c-5.56 0-8.34-4.42-8.34-13.24 0-6.53 1.57-13.54 4.71-21.04l75.61-189.3c.97-2.29 2.54-4.28 4.72-5.98s4.47-2.53 6.89-2.53h61.46c-1.57 0-2.96.57-4.17 1.72s-1.87 2.5-2 4.08l-2.71 34.81c-.12 1.7.36 3.08 1.45 4.17s2.42 1.63 3.99 1.63h30.1c1.57 0 2.9-.54 3.99-1.63s1.57-2.48 1.45-4.17l-2.72-34.81c-.12-1.57-.79-2.93-2-4.08s-2.6-1.72-4.17-1.72h61.47c2.42 0 4.71.84 6.89 2.53s3.75 3.7 4.71 5.99l75.61 189.3c3.15 7.49 4.72 14.5 4.72 21.03z"/></svg>
