<svg width="44.588" height="44.588" viewBox="0 0 11.797 11.797" xmlns="http://www.w3.org/2000/svg"><defs><linearGradient x1="0" y1="0" x2="1" y2="0" gradientUnits="userSpaceOnUse" gradientTransform="matrix(11.79738 0 0 11.79738 74.37 100.786)" spreadMethod="pad" id="b"><stop offset="0" stop-color="#ed1c24"/><stop offset=".141" stop-color="#f25c19"/><stop offset=".173" stop-color="#f25c19"/><stop offset=".323" stop-color="#f9a70f"/><stop offset=".369" stop-color="#f9a70f"/><stop offset=".41" stop-color="#f9a70f"/><stop offset=".612" stop-color="#80cc28"/><stop offset=".798" stop-color="#42b298"/><stop offset=".82" stop-color="#42b298"/><stop offset=".846" stop-color="#42b298"/><stop offset="1" stop-color="#2b6bb2"/></linearGradient><clipPath clipPathUnits="userSpaceOnUse" id="a"><path d="M20.986 165.782h50.847v-36.854H20.986z"/></clipPath></defs><path fill="#ccc" fill-rule="evenodd" d="M0 0h11.797v11.797H0z"/><path d="M0 11.797L11.797 0M0 0l11.797 11.797" fill="#b3b3b3" stroke="#b1b1b1" stroke-width=".265"/><path d="M74.37 98.192v2.783h.511v-.008c0-.614.354-1.274 1.132-1.274.635 0 .984.407.984 1.146v.136h.511v-.121c0-1.006-.478-1.56-1.346-1.56-.816 0-1.136.528-1.214.69l-.067.136v-1.928c0-.17-.098-.277-.256-.277-.157 0-.255.106-.255.277m8.352 2.783h-.327c-.121 0-.194.07-.194.188s.073.189.194.189h.326c.074 1.027.811 1.683 1.924 1.683.464 0 .828-.071 1.146-.224.078-.036.166-.106.143-.231a.162.162 0 00-.073-.119c-.051-.032-.123-.035-.207-.01-.063.02-.12.04-.174.059-.203.072-.378.134-.785.134-.86 0-1.43-.503-1.451-1.28v-.012h2.675c.154 0 .243-.082.249-.228v-.029c-.003-1.67-1.253-1.8-1.636-1.8-1.005 0-1.723.68-1.81 1.68m.522-.019c.06-.776.57-1.278 1.302-1.278.558 0 1.154.337 1.154 1.281v.015h-2.458zM81.169 99.6v1.374h.511V99.6c0-.165-.095-.263-.255-.263s-.256.098-.256.263m-2.62 0v1.374h.511V99.6c0-.165-.095-.263-.255-.263s-.255.098-.255.263m2.62 1.752v.124c0 .65-.467 1.16-1.062 1.16-.705 0-1.048-.374-1.048-1.146v-.138h-.51v.166c0 1.006.474 1.516 1.41 1.516.55 0 .954-.239 1.2-.71l.01-.018v.423c0 .165.095.263.255.263s.255-.098.255-.263v-1.377zm-4.173 0v1.363c0 .17.098.277.256.277.157 0 .255-.107.255-.277v-1.363zm-2.627 0v1.363c0 .17.098.277.255.277.158 0 .256-.107.256-.277v-1.363z" fill="url(#b)" transform="translate(-74.37 -94.576)"/></svg>