<svg xmlns="http://www.w3.org/2000/svg" width="600" height="600"><path d="M10 299.998C10 136.58 139.839 4.099 299.998 4.099 460.161 4.099 590 136.58 590 299.998c0 163.422-129.839 295.903-290.002 295.903C139.839 595.901 10 463.42 10 299.998" fill="#007ac9"/><path d="M320.535 298.947c38.085 0 62.324-19.908 62.324-50.635v-.868c0-32.456-23.374-50.204-62.755-50.204h-77.477v101.708h77.908zm-131.14-150.184h135.03c38.093 0 67.957 11.264 87.433 30.296 16.006 16.45 25.098 38.952 25.098 65.358v.868c0 48.477-28.129 77.909-68.812 90.444l81.61 121.13h-66.463l-73.575-110.742h-67.089v110.742h-53.231l-.001-308.096z" fill="#fff"/></svg>