<svg xmlns="http://www.w3.org/2000/svg" width="150" height="150"><path d="M551.853 3158.41c-8.574-.553-10.668-.991-7.333-1.535 4.5-.733 4.453-.768-1.334-.974-10.625-.378-37.537-5.333-54.666-10.065-101.297-27.982-181.98-109.157-209.385-210.662-4.314-15.978-9.173-43.115-9.457-52.82-.173-5.899-.19-5.921-1.046-1.333-2.297 12.323-2.768-56.45-2.768-404s.471-416.323 2.768-404c.855 4.588.873 4.566 1.046-1.333.097-3.3 1.356-13.2 2.8-22 20.968-127.877 120.664-227.566 248.708-248.693 8.8-1.452 18.7-2.719 22-2.816 5.9-.172 5.922-.19 1.334-1.045-12.323-2.297 56.45-2.769 404-2.769s416.323.472 404 2.769c-4.588.855-4.566.873 1.333 1.045 10.415.306 37.372 5.25 54.667 10.027 101.297 27.982 181.98 109.157 209.385 210.663 4.314 15.977 9.172 43.114 9.457 52.819.173 5.9.19 5.922 1.045 1.333 2.297-12.323 2.769 56.45 2.769 404s-.472 416.323-2.769 404c-.855-4.588-.872-4.566-1.045 1.333-.305 10.416-5.25 37.372-10.027 54.667-27.982 101.297-109.157 181.98-210.663 209.385-15.977 4.314-43.114 9.173-52.819 9.457-5.899.173-5.921.19-1.333 1.046 3.142.586-.997 1.18-12.667 1.819-20.428 1.119-770.423.816-788-.318z" style="fill:#fe7900;stroke-width:1.33333325" transform="matrix(.10987 0 0 .10987 -29.21 -197.11)"/><path d="M1364.785 3041.309c58.949-13.59 105.46-49.352 131.459-101.075 6.958-13.842 12.883-30.843 16.6-47.628l3.01-13.585v-804l-3.01-13.584c-16.949-76.533-72.207-131.791-148.74-148.74l-13.584-3.01h-804l-13.585 3.01c-76.532 16.949-131.79 72.207-148.74 148.74l-3.009 13.584v804l3.009 13.585c18.07 81.593 81.596 140.435 162.991 150.974 4.767.618 187.767 1.03 406.667.917l398-.206z" style="fill:#fff;stroke-width:1.33333325" transform="matrix(.10987 0 0 .10987 -29.21 -197.11)"/><path d="M574.52 2859.765c-1.467-.615-4.167-2.733-6-4.705l-3.334-3.587-.365-321.56c-.395-348.154-.618-335.955 6.568-359.241 13.474-43.664 47.565-70.041 98.572-76.268 9.204-1.123 85.929-1.41 287.226-1.076 304.802.507 279.467-.25 305.101 9.106 30.448 11.112 53.473 35.901 63.382 68.237 6.847 22.346 6.98 26.17 6.485 187.017-.414 134.428-.683 150.235-2.7 158.367-3.197 12.885-10.4 31.477-15.705 40.534-5.782 9.873-30.264 34.401-40.098 40.174-4.13 2.425-28.66 13.95-54.51 25.611-25.85 11.662-48.414 22.533-50.144 24.158-7.1 6.67-8.01 4.907 54.953 106.627 31.954 51.624 58.42 95.472 58.816 97.44.536 2.672-.15 4.446-2.704 7l-3.422 3.422h-81.823c-92.027 0-89.511.246-100.246-9.797-4.026-3.767-24.68-35.038-64.629-97.85-32.291-50.773-60.488-95.473-62.66-99.334-6.025-10.713-11.704-29.38-14.014-46.065-1.6-11.554-2.082-27.28-2.082-67.769v-52.723l3.897-3.898 3.897-3.897h87.77c96.927 0 93.265.307 99.674-8.428 2.722-3.71 2.767-5.089 3.13-97.173.36-91.159.304-93.543-2.305-98.933-5.355-11.061 12.913-10.131-198.936-10.126-184.258.01-188.556.063-192.71 2.596-2.336 1.424-5.036 3.972-6 5.661-1.425 2.5-1.875 56.54-2.418 290.713l-.666 287.64-4.359 4.36-4.358 4.359-80.308.264c-44.17.147-81.509-.238-82.975-.853z" style="fill:#0684bc;fill-opacity:1;stroke-width:1.33333325" transform="matrix(.10987 0 0 .10987 -29.21 -197.11)"/></svg>