<svg xmlns="http://www.w3.org/2000/svg" xmlns:xlink="http://www.w3.org/1999/xlink" viewBox="0 0 27.1 35"><path fill="#2c662d" d="M16.9.2c-.5-.4-1.5-.2-1.9.5L3.1 20.1c-.4.7-.2 1.6.5 2l.9.5-4.4 7.2c-.2.3-.1.7.2 1l6.8 4.1c.3.2.8.1 1-.2l4.4-7.2.6.4c.6.4 1.5.1 1.9-.5L26.9 7.9c.4-.6.2-1.5-.5-1.9Zm-.4 11.4a3.8 4 31.5 0 1 1.1 5.5 3.8 4 31.5 0 1-5.2 1.4 3.8 4 31.5 0 1-1.2-5.4 3.8 4 31.5 0 1 5.3-1.5z" paint-order="fill markers stroke"/><rect id="a" width="1.4" height="7" x="17.02" y="18.2" fill="#ffd500" fill-opacity=".5" paint-order="fill markers stroke" rx=".3" transform="rotate(31.5)"/><use xlink:href="#a" transform="translate(4.43 2.72)"/><use xlink:href="#a" transform="translate(1.48 .9)"/><use xlink:href="#a" transform="translate(2.95 1.81)"/></svg>